#!OML:ASF F:\VICON\USERDATA\INSTALL\rory3\rory3.ASF
:FULLY-SPECIFIED
:DEGREES
3180
root 0.953608 17.9213 0.812044 2.45508 9.62414 -2.62265
lowerback 4.28087 -1.8085 -5.63926
upperback 0.0572202 -2.68478 0.0653088
thorax -2.07997 -1.2816 3.38356
lowerneck -26.0315 2.30547 -10.4907
upperneck -3.5982 5.66683 9.83764
head 2.3161 3.472 5.29431
rclavicle -1.56046e-014 -5.56597e-015
rhumerus -40.7193 4.51873 -82.9096
rradius 82.5549
rwrist 36.1899
rhand -50.3508 0.249832
rfingers 7.12502
rthumb -22.9258 -28.4072
lclavicle -1.56046e-014 -5.56597e-015
lhumerus 76.2583 -56.8156 38.4357
lradius 41.2221
lwrist -28.4284
lhand -28.1794 41.8985
lfingers 7.12502
lthumb -1.55919 -288.127
rfemur -9.76784 2.58759 11.2111
rtibia 26.06
rfoot -13.5105 -13.4374
rtoes -1.2605
lfemur -9.85851 3.89803 -16.55
ltibia 24.994
lfoot -13.5414 8.26459
ltoes -12.6072
3181
root 0.954832 17.9162 0.801411 2.92045 9.28055 -1.73185
lowerback 4.13804 -1.85456 -6.28354
upperback 0.0253479 -2.77022 -0.0220462
thorax -1.99897 -1.31982 3.65247
lowerneck -25.8562 2.43513 -10.6792
upperneck -3.92225 5.885 9.99661
head 2.16267 3.58901 5.37998
rclavicle 7.85199e-015 -1.35174e-014
rhumerus -40.565 3.96973 -82.8731
rradius 81.7346
rwrist 35.1521
rhand -50.5566 0.0894331
rfingers 7.12502
rthumb -23.1232 -28.5429
lclavicle 7.85199e-015 -1.35174e-014
lhumerus 76.2583 -56.8156 38.4357
lradius 41.2221
lwrist -28.4284
lhand -28.1794 41.8985
lfingers 7.12502
lthumb -1.55919 -288.127
rfemur -10.1831 2.41724 10.2048
rtibia 26.0345
rfoot -13.897 -13.159
rtoes 0.149522
lfemur -10.1283 3.8954 -17.5894
ltibia 24.9231
lfoot -13.5192 8.5927
ltoes -12.5677
3182
root 0.948067 17.9081 0.789419 3.21997 8.86836 -1.30282
lowerback 4.15332 -1.85695 -6.55951
upperback -0.0421833 -2.78938 0.0250522
thorax -2.06035 -1.32277 3.85886
lowerneck -25.6931 2.58046 -10.7291
upperneck -4.05372 6.0799 9.98078
head 2.07848 3.68177 5.38805
rclavicle 3.72721e-015 7.95139e-015
rhumerus -40.5477 3.52961 -82.797
rradius 81.003
rwrist 34.3196
rhand -50.887 -0.461042
rfingers 7.12502
rthumb -23.4403 -29.0533
lclavicle 3.72721e-015 7.95139e-015
lhumerus 76.2583 -56.8156 38.4357
lradius 41.2221
lwrist -28.4284
lhand -28.1794 41.8985
lfingers 7.12502
lthumb -1.55919 -288.127
rfemur -10.5406 2.31517 9.73817
rtibia 25.9487
rfoot -14.6366 -12.9555
rtoes 1.68928
lfemur -10.3883 4.027 -18.085
ltibia 25.0115
lfoot -13.5816 8.85556
ltoes -12.2151
3183
root 0.938317 17.8995 0.780881 3.34973 8.40844 -1.48159
lowerback 4.23958 -1.82079 -6.26962
upperback -0.0864145 -2.73097 0.226945
thorax -2.16452 -1.29159 3.90789
lowerneck -25.4861 2.73642 -10.8475
upperneck -4.12981 6.29888 10.0642
head 1.99924 3.79124 5.43988
rclavicle -7.15625e-015 -7.95139e-015
rhumerus -40.5933 3.18996 -82.624
rradius 80.438
rwrist 33.5813
rhand -50.8121 -0.556232
rfingers 7.12502
rthumb -23.3684 -29.1576
lclavicle -7.15625e-015 -7.95139e-015
lhumerus 76.2583 -56.8156 38.4357
lradius 41.2221
lwrist -28.4284
lhand -28.1794 41.8985
lfingers 7.12502
lthumb -1.55919 -288.127
rfemur -10.7328 2.29262 9.97044
rtibia 25.6908
rfoot -15.142 -12.6766
rtoes 1.09149
lfemur -10.679 4.30708 -17.9021
ltibia 25.3393
lfoot -13.7595 9.0395
ltoes -12.2156
3184
root 0.927833 17.8879 0.77567 3.30059 7.92008 -1.91689
lowerback 4.37871 -1.77312 -5.74547
upperback 0.00404646 -2.64183 0.494209
thorax -2.16922 -1.2539 3.8902
lowerneck -25.4675 2.9128 -10.8761
upperneck -4.208 6.53874 10.077
head 1.94547 3.91107 5.46169
rclavicle -1.49089e-015 -6.36111e-015
rhumerus -40.4986 2.86584 -82.396
rradius 79.9117
rwrist 33.1234
rhand -50.8905 -0.663173
rfingers 7.12502
rthumb -23.4436 -29.255
lclavicle -1.49089e-015 -6.36111e-015
lhumerus 76.2583 -56.8156 38.4357
lradius 41.2221
lwrist -28.4284
lhand -28.1794 41.8985
lfingers 7.12502
lthumb -1.55919 -288.127
rfemur -10.6437 2.31441 10.5283
rtibia 25.2451
rfoot -15.0103 -12.4763
rtoes -0.0449756
lfemur -10.8935 4.62852 -17.3933
ltibia 25.8524
lfoot -14.1839 9.17321
ltoes -12.1532
3185
root 0.918195 17.8787 0.771216 3.04009 7.41126 -2.52678
lowerback 4.6961 -1.70486 -5.01224
upperback 0.15604 -2.52059 0.782335
thorax -2.22096 -1.2018 3.77978
lowerneck -25.1919 3.10007 -10.8333
upperneck -4.61419 6.77153 9.90228
head 1.7637 4.01429 5.39539
rclavicle -1.98785e-016 2.14687e-014
rhumerus -40.4216 2.58607 -82.1359
rradius 79.4072
rwrist 32.9555
rhand -51.3267 -0.934311
rfingers 7.12502
rthumb -23.862 -29.4721
lclavicle -1.98785e-016 2.14687e-014
lhumerus 76.2583 -56.8156 38.4357
lradius 41.2221
lwrist -28.4284
lhand -28.1794 41.8985
lfingers 7.12502
lthumb -1.55919 -288.127
rfemur -10.3311 2.57604 11.3068
rtibia 24.7234
rfoot -14.9018 -12.6085
rtoes -0.117561
lfemur -10.9041 4.86908 -16.649
ltibia 26.3897
lfoot -14.613 9.33185
ltoes -11.8932
3186
root 0.911794 17.8737 0.769453 2.93823 6.86169 -2.8599
lowerback 4.89953 -1.61979 -4.51148
upperback 0.254284 -2.38356 0.970372
thorax -2.25934 -1.13874 3.69082
lowerneck -25.1545 3.25466 -10.7111
upperneck -4.72647 6.94562 9.69506
head 1.71348 4.08848 5.31588
rclavicle 2.17669e-014 -8.34896e-015
rhumerus -40.3375 2.38586 -81.8149
rradius 79.0209
rwrist 32.6473
rhand -51.6524 -0.916231
rfingers 7.12502
rthumb -24.1742 -29.4128
lclavicle 2.17669e-014 -8.34896e-015
lhumerus 76.2583 -56.8156 38.4357
lradius 41.2221
lwrist -28.4284
lhand -28.1794 41.8985
lfingers 7.12502
lthumb -1.55919 -288.127
rfemur -10.1825 2.88623 11.7203
rtibia 24.2583
rfoot -14.9259 -12.6401
rtoes 0.383288
lfemur -10.9823 5.25607 -16.2485
ltibia 26.8378
lfoot -14.861 9.42164
ltoes -11.5606
3187
root 0.905909 17.8697 0.770576 3.11915 6.30433 -2.82233
lowerback 4.85518 -1.51177 -4.35665
upperback 0.28531 -2.22689 1.03918
thorax -2.22055 -1.06351 3.66337
lowerneck -25.4736 3.3077 -10.6214
upperneck -4.48965 7.00735 9.60014
head 1.82615 4.11735 5.29035
rclavicle 9.98893e-015 5.56597e-015
rhumerus -40.2786 2.06701 -81.4467
rradius 78.8856
rwrist 32.2178
rhand -51.7352 -0.723377
rfingers 7.12502
rthumb -24.2536 -29.2094
lclavicle 9.98893e-015 5.56597e-015
lhumerus 76.2583 -56.8156 38.4357
lradius 41.2221
lwrist -28.4284
lhand -28.1794 41.8985
lfingers 7.12502
lthumb -1.55919 -288.127
rfemur -10.3511 2.88718 11.6932
rtibia 23.9306
rfoot -14.6456 -12.5374
rtoes -0.167109
lfemur -11.2184 5.64798 -16.2997
ltibia 27.1478
lfoot -14.9999 9.5598
ltoes -11.3134
3188
root 0.898903 17.8654 0.769266 3.23784 5.80221 -2.8256
lowerback 4.92676 -1.42679 -4.18586
upperback 0.295163 -2.10487 1.13521
thorax -2.26449 -1.00303 3.66171
lowerneck -25.7722 3.38365 -10.6444
upperneck -4.23299 7.12522 9.61088
head 1.93031 4.17999 5.32021
rclavicle 6.21202e-015 6.36111e-015
rhumerus -40.0705 1.90339 -80.9969
rradius 78.6418
rwrist 31.8896
rhand -51.9491 -0.757263
rfingers 7.12502
rthumb -24.4587 -29.2157
lclavicle 6.21202e-015 6.36111e-015
lhumerus 76.2583 -56.8156 38.4357
lradius 41.2221
lwrist -28.4284
lhand -28.1794 41.8985
lfingers 7.12502
lthumb -1.55919 -288.127
rfemur -10.4981 2.84794 11.712
rtibia 23.7042
rfoot -14.4579 -12.3777
rtoes -0.320847
lfemur -11.3778 5.89371 -16.2981
ltibia 27.3852
lfoot -15.0902 9.76876
ltoes -11.153
3189
root 0.889833 17.8586 0.76286 3.29228 5.27128 -2.72747
lowerback 5.07746 -1.32686 -4.16919
upperback 0.341623 -1.97391 1.2322
thorax -2.31033 -0.937151 3.74886
lowerneck -25.65 3.46532 -10.9275
upperneck -4.43599 7.30759 9.74794
head 1.81931 4.28036 5.41169
rclavicle -7.85199e-015 3.57812e-015
rhumerus -39.5844 1.93866 -80.421
rradius 78.0988
rwrist 31.6298
rhand -52.3816 -0.944349
rfingers 7.12502
rthumb -24.8733 -29.3462
lclavicle -7.85199e-015 3.57812e-015
lhumerus 76.2583 -56.8156 38.4357
lradius 41.2221
lwrist -28.4284
lhand -28.1794 41.8985
lfingers 7.12502
lthumb -1.55919 -288.127
rfemur -10.65 2.98044 11.6172
rtibia 23.5563
rfoot -14.4317 -12.2068
rtoes 0.113752
lfemur -11.4612 6.23042 -16.3878
ltibia 27.5811
lfoot -15.1804 9.89459
ltoes -11.0354
3190
root 0.881677 17.8504 0.75779 3.44441 4.79756 -2.64402
lowerback 5.08387 -1.23124 -4.10944
upperback 0.362044 -1.84116 1.30937
thorax -2.30473 -0.871753 3.78662
lowerneck -25.4595 3.57717 -11.0566
upperneck -4.6952 7.48621 9.72003
head 1.69117 4.36785 5.42117
rclavicle -3.04141e-014 -7.95139e-016
rhumerus -39.2078 1.87706 -79.793
rradius 77.9761
rwrist 31.0526
rhand -52.3756 -1.23084
rfingers 7.12502
rthumb -24.8675 -29.6335
lclavicle -3.04141e-014 -7.95139e-016
lhumerus 76.2583 -56.8156 38.4357
lradius 41.2221
lwrist -28.4284
lhand -28.1794 41.8985
lfingers 7.12502
lthumb -1.55919 -288.127
rfemur -10.8818 2.95888 11.5348
rtibia 23.4068
rfoot -14.3729 -11.9304
rtoes 0.510616
lfemur -11.6687 6.55637 -16.4892
ltibia 27.7907
lfoot -15.3661 9.99284
ltoes -11.0353
3191
root 0.874212 17.8464 0.755739 3.67741 4.51921 -2.64416
lowerback 4.98441 -1.21815 -3.9271
upperback 0.322272 -1.80863 1.37
thorax -2.29678 -0.856642 3.74233
lowerneck -25.2128 3.74953 -10.9328
upperneck -4.90612 7.66872 9.49971
head 1.58402 4.44249 5.32747
rclavicle -1.80894e-014 1.63003e-014
rhumerus -39.0975 1.81263 -79.2434
rradius 78.5727
rwrist 30.0048
rhand -52.2155 -1.62972
rfingers 7.12502
rthumb -24.714 -30.0534
lclavicle -1.80894e-014 1.63003e-014
lhumerus 76.2583 -56.8156 38.4357
lradius 41.2221
lwrist -28.4284
lhand -28.1794 41.8985
lfingers 7.12502
lthumb -1.55919 -288.127
rfemur -11.1145 2.64168 11.5323
rtibia 23.2412
rfoot -14.2133 -11.5885
rtoes 0.420682
lfemur -11.9792 6.68247 -16.5196
ltibia 28.0091
lfoot -15.5614 10.0803
ltoes -11.0809
